<svg xmlns="http://www.w3.org/2000/svg" xmlns:xlink="http://www.w3.org/1999/xlink" width="645.4614322232036" height="647.4667517377727" stroke-linejoin="round" title=" | Kumu" version="1.1" style="background-color: rgb(255, 255, 255);"><defs><style type="text/css"> @charset "utf-8"; svg { -webkit-font-smoothing: antialiased; text-rendering: geometricPrecision; } </style></defs><defs></defs><rect x="0" y="0" width="645.4614322232036" height="647.4667517377727" style="fill: rgb(255, 255, 255);"></rect><g fill-opacity="1" stroke-opacity="1"></g><g fill-opacity="1" stroke-opacity="1"><path d="M297.18126298159666,297.43906213434275A 202.61637648699167,202.61637648699167 0 0,1 235.99165907670937,143.12653396040704" fill="transparent" stroke="rgba(188, 195, 195, 0.6)" stroke-width="6.947368421052632" opacity="0.8"></path><path d="M14.214,0 L0,11.5 L0,-11.5" transform="translate(236.01710424638875, 143.62606951017685) rotate(-87.50284065004045)" fill="rgba(188, 195, 195, 0.6)"></path><path d="M286.6577212830162,324.09446506101807A 225.02544767685575,225.02544767685575 0 0,1 111.87119134046989,258.9526711333208" fill="transparent" stroke="rgba(188, 195, 195, 0.6)" stroke-width="9.31578947368421" opacity="0.8"></path><path d="M14.392894736842106,0 L0,11.644736842105264 L0,-11.644736842105264" transform="translate(112.25509322741698, 259.27326301804044) rotate(-135.12541769517588)" fill="rgba(188, 195, 195, 0.6)"></path><path d="M337.94210506693867,353.4545757632951A 222.7106110029679,222.7106110029679 0 0,1 353.237110487875,537.2083408141689" fill="transparent" stroke="rgba(188, 195, 195, 0.6)" stroke-width="6" opacity="0.8"></path><path d="M14.214,0 L0,11.5 L0,-11.5" transform="translate(353.3632628157077, 536.7243530761843) rotate(109.64441515484441)" fill="rgba(188, 195, 195, 0.6)"></path><path d="M299.62108871223825,349.71426811112894A 177.89341565993394,177.89341565993394 0 0,1 174.0260754164752,419.16656026261506" fill="transparent" stroke="rgba(188, 195, 195, 0.6)" stroke-width="6" opacity="0.8"></path><path d="M14.214,0 L0,11.5 L0,-11.5" transform="translate(174.5168175297403, 419.0696365297992) rotate(174.786833803773)" fill="rgba(188, 195, 195, 0.6)"></path><path d="M315.2284184386357,288.08168007027086A 203.1910676325244,203.1910676325244 0 0,1 350.26873197965494,125.28380961772504" fill="transparent" stroke="rgba(188, 195, 195, 0.6)" stroke-width="6.947368421052632" opacity="0.8"></path><path d="M14.214,0 L0,11.5 L0,-11.5" transform="translate(350.0120119062357, 125.71308487285194) rotate(-53.71766025497826)" fill="rgba(188, 195, 195, 0.6)"></path><path d="M288.4701883185704,333.71877869707157A 200.01730343040302,200.01730343040302 0 0,1 125.21884552489985,322.5926675704925" fill="transparent" stroke="rgba(188, 195, 195, 0.6)" stroke-width="6" opacity="0.8"></path><path d="M14.214,0 L0,11.5 L0,-11.5" transform="translate(125.68088675793803, 322.7842523205336) rotate(-152.0126998919351)" fill="rgba(188, 195, 195, 0.6)"></path><path d="M305.45978588546825,291.4475889860151A 219.9018838780728,219.9018838780728 0 0,1 291.15492625888453,110.19733667344235" fill="transparent" stroke="rgba(188, 195, 195, 0.6)" stroke-width="7.421052631578948" opacity="0.8"></path><path d="M14.214,0 L0,11.5 L0,-11.5" transform="translate(291.0274263700294, 110.68097441575017) rotate(-70.14634441022335)" fill="rgba(188, 195, 195, 0.6)"></path><path d="M290.8706824480716,305.77724127342003A 228.04896470917367,228.04896470917367 0 0,1 173.44362333960265,157.31545290980827" fill="transparent" stroke="rgba(188, 195, 195, 0.6)" stroke-width="6" opacity="0.8"></path><path d="M14.214,0 L0,11.5 L0,-11.5" transform="translate(173.60493838201495, 157.78887688242207) rotate(-103.87289094207836)" fill="rgba(188, 195, 195, 0.6)"></path><path d="M350.22346490713164,302.3211066921614A 196.06508792196388,196.06508792196388 0 0,1 506.354350892729,267.2235787113522" fill="transparent" stroke="rgba(188, 195, 195, 0.6)" stroke-width="6" opacity="0.8"></path><path d="M14.214,0 L0,11.5 L0,-11.5" transform="translate(505.8567286429403, 267.172937022127) rotate(11.359179886582062)" fill="rgba(188, 195, 195, 0.6)"></path><path d="M317.6053548152492,357.26179703212745A 207.54360522863922,207.54360522863922 0 0,1 234.04727725915734,505.8853998473382" fill="transparent" stroke="rgba(188, 195, 195, 0.6)" stroke-width="6" opacity="0.8"></path><path d="M14.214,0 L0,11.5 L0,-11.5" transform="translate(234.42030897281953, 505.55219717962177) rotate(143.5434019031086)" fill="rgba(188, 195, 195, 0.6)"></path><path d="M342.90033609739834,294.70457951290996A 225.94737802491306,225.94737802491306 0 0,1 506.0287772611483,202.54991441963003" fill="transparent" stroke="rgba(188, 195, 195, 0.6)" stroke-width="6" opacity="0.8"></path><path d="M14.214,0 L0,11.5 L0,-11.5" transform="translate(505.5362185350326, 202.63675291789684) rotate(-5.019509307277374)" fill="rgba(188, 195, 195, 0.6)"></path><path d="M356.5989889653624,321.25014418437655A 185.23455019408965,185.23455019408965 0 0,1 497.4918511619066,373.23133822318687" fill="transparent" stroke="rgba(188, 195, 195, 0.6)" stroke-width="6" opacity="0.8"></path><path d="M14.214,0 L0,11.5 L0,-11.5" transform="translate(497.09940356902575, 372.92118625934825) rotate(44.105865298643636)" fill="rgba(188, 195, 195, 0.6)"></path><path d="M293.7135298798659,343.61566044286997A 225.65406299389582,225.65406299389582 0 0,1 112.20728944991168,388.98144992526517" fill="transparent" stroke="rgba(188, 195, 195, 0.6)" stroke-width="6" opacity="0.8"></path><path d="M14.214,0 L0,11.5 L0,-11.5" transform="translate(112.70520636337287, 389.02871603064295) rotate(-169.59321579794812)" fill="rgba(188, 195, 195, 0.6)"></path><path d="M345.4162110483457,348.1598505941928A 187.53707933428453,187.53707933428453 0 0,1 398.72792656105344,490.78960797413066" fill="transparent" stroke="rgba(188, 195, 195, 0.6)" stroke-width="6.473684210526316" opacity="0.8"></path><path d="M14.214,0 L0,11.5 L0,-11.5" transform="translate(398.7075385299252, 490.2898180971659) rotate(93.39827106994743)" fill="rgba(188, 195, 195, 0.6)"></path><path d="M334.8449071171081,290.08722258092394A 182.30960021010597,182.30960021010597 0 0,1 438.0921823422704,184.71823399837822" fill="transparent" stroke="rgba(188, 195, 195, 0.6)" stroke-width="6" opacity="0.8"></path><path d="M14.214,0 L0,11.5 L0,-11.5" transform="translate(437.64901794471626, 184.95022450093558) rotate(-21.777281033918126)" fill="rgba(188, 195, 195, 0.6)"></path><path d="M307.7613372548526,354.63181733135826A 167.8426616258049,167.8426616258049 0 0,1 215.97964217751388,459.29997039957937" fill="transparent" stroke="rgba(188, 195, 195, 0.6)" stroke-width="42" opacity="0.8"></path><path d="M64.89,0 L0,52.5 L0,-52.5" transform="translate(216.39467328031412, 459.01518397696105) rotate(155.69621510398548)" fill="rgba(188, 195, 195, 0.6)"></path><path d="M325.56237675533777,287.7155520175114A 195.98584131578042,195.98584131578042 0 0,1 399.10496801966787,142.8254349301828" fill="transparent" stroke="rgba(188, 195, 195, 0.6)" stroke-width="25.894736842105264" opacity="0.8"></path><path d="M40.00736842105263,0 L0,32.36842105263158 L0,-32.36842105263158" transform="translate(398.75850835012943, 143.1876938267522) rotate(-38.65004756716317)" fill="rgba(188, 195, 195, 0.6)"></path><path d="M328.04675438258516,356.8980235745259A 202.70516985237543,202.70516985237543 0 0,1 293.2834490606423,519.3016931481623" fill="transparent" stroke="rgba(188, 195, 195, 0.6)" stroke-width="6" opacity="0.8"></path><path d="M14.214,0 L0,11.5 L0,-11.5" transform="translate(293.5395570678172, 518.8720516816361) rotate(126.21040725215214)" fill="rgba(188, 195, 195, 0.6)"></path><path d="M351.71840712517707,340.35769214398476A 214.93198020571944,214.93198020571944 0 0,1 456.93555572524735,483.01375872736435" fill="transparent" stroke="rgba(188, 195, 195, 0.6)" stroke-width="6" opacity="0.8"></path><path d="M14.214,0 L0,11.5 L0,-11.5" transform="translate(456.786935954769, 482.5361818772767) rotate(77.88944128302471)" fill="rgba(188, 195, 195, 0.6)"></path><path d="M354.8709226953094,311.56376449301246A 222.788179697531,222.788179697531 0 0,1 538.6727113814107,327.13706843047044" fill="transparent" stroke="rgba(188, 195, 195, 0.6)" stroke-width="6" opacity="0.8"></path><path d="M14.214,0 L0,11.5 L0,-11.5" transform="translate(538.2165523165881, 326.9319407573554) rotate(29.246569433914317)" fill="rgba(188, 195, 195, 0.6)"></path><path d="M287.72268313559476,313.78086860236454A 187.41576173893992,187.41576173893992 0 0,1 165.8043298841422,222.74382482053267" fill="transparent" stroke="rgba(188, 195, 195, 0.6)" stroke-width="6.947368421052632" opacity="0.8"></path><path d="M14.214,0 L0,11.5 L0,-11.5" transform="translate(166.0919310910827, 223.15308187227825) rotate(-119.36025420990491)" fill="rgba(188, 195, 195, 0.6)"></path><path d="M355.58508255629687,330.9454564843703A 214.74943541179348,214.74943541179348 0 0,1 497.2619009210446,437.19918925124335" fill="transparent" stroke="rgba(188, 195, 195, 0.6)" stroke-width="6" opacity="0.8"></path><path d="M14.214,0 L0,11.5 L0,-11.5" transform="translate(496.98212443155916, 436.78458966309245) rotate(61.16680478491604)" fill="rgba(188, 195, 195, 0.6)"></path><circle r="35" cx="554.5226836008395" cy="198.33418441209383" style="fill: rgb(188, 195, 195); opacity: 1;"></circle><text x="554.5226836008395" y="198.33418441209383" dx="0" dy="0" font-family="&quot;proxima nova&quot;, proxima-nova, &quot;Helvetica Neue&quot;, helvetica, sans-serif" font-size="9.731162594595945px" font-weight="normal" font-style="normal" text-anchor="middle" alignment-baseline="middle" style="fill: rgb(68, 68, 68); opacity: 1;">COMMUNISTS</text><circle r="35" cx="554.0593000308213" cy="276.8565475120407" style="fill: rgb(188, 195, 195); opacity: 1;"></circle><text x="554.0593000308213" y="276.8565475120407" dx="0" dy="0" font-family="&quot;proxima nova&quot;, proxima-nova, &quot;Helvetica Neue&quot;, helvetica, sans-serif" font-size="9.731162594595945px" font-weight="normal" font-style="normal" text-anchor="middle" alignment-baseline="middle" style="fill: rgb(68, 68, 68); opacity: 1;">CHRISTIANS</text><circle r="35" cx="321.6210604505686" cy="322.4929300927165" style="fill: rgb(188, 195, 195); opacity: 1;"></circle><text x="321.6210604505686" y="322.4929300927165" dx="0" dy="0" font-family="&quot;proxima nova&quot;, proxima-nova, &quot;Helvetica Neue&quot;, helvetica, sans-serif" font-size="9.731162594595945px" font-weight="normal" font-style="normal" text-anchor="middle" alignment-baseline="middle" style="fill: rgb(68, 68, 68); opacity: 1;">MALCOM X</text><circle r="35" cx="161.81416449802424" cy="110.04771609412037" style="fill: rgb(188, 195, 195); opacity: 1;"></circle><text x="161.81416449802424" y="110.04771609412037" dx="0" dy="0" font-family="&quot;proxima nova&quot;, proxima-nova, &quot;Helvetica Neue&quot;, helvetica, sans-serif" font-size="9.731162594595945px" font-weight="normal" font-style="normal" text-anchor="middle" alignment-baseline="middle" style="fill: rgb(68, 68, 68); opacity: 1;">KENNEDY FAMILY</text><circle r="35" cx="194.87283517180836" cy="534.7694539422396" style="fill: rgb(188, 195, 195); opacity: 1;"></circle><text x="194.87283517180836" y="534.7694539422396" dx="0" dy="0" font-family="&quot;proxima nova&quot;, proxima-nova, &quot;Helvetica Neue&quot;, helvetica, sans-serif" font-size="9.731162594595945px" font-weight="normal" font-style="normal" text-anchor="middle" alignment-baseline="middle" style="fill: rgb(68, 68, 68); opacity: 1;">MUSLIMS</text><circle r="35" cx="581.122276213058" cy="350.956926108656" style="fill: rgb(188, 195, 195); opacity: 1;"></circle><text x="581.122276213058" y="350.956926108656" dx="0" dy="0" font-family="&quot;proxima nova&quot;, proxima-nova, &quot;Helvetica Neue&quot;, helvetica, sans-serif" font-size="9.731162594595945px" font-weight="normal" font-style="normal" text-anchor="middle" alignment-baseline="middle" style="fill: rgb(68, 68, 68); opacity: 1;">BUDDHISTS</text><circle r="35" cx="467.1031437665392" cy="530.6137629306434" style="fill: rgb(188, 195, 195); opacity: 1;"></circle><text x="467.1031437665392" y="530.6137629306434" dx="0" dy="0" font-family="&quot;proxima nova&quot;, proxima-nova, &quot;Helvetica Neue&quot;, helvetica, sans-serif" font-size="9.731162594595945px" font-weight="normal" font-style="normal" text-anchor="middle" alignment-baseline="middle" style="fill: rgb(68, 68, 68); opacity: 1;">AFRICANS</text><circle r="35" cx="82.2638303501785" cy="299.71133682020815" style="fill: rgb(188, 195, 195); opacity: 1;"></circle><text x="82.2638303501785" y="299.71133682020815" dx="0" dy="0" font-family="&quot;proxima nova&quot;, proxima-nova, &quot;Helvetica Neue&quot;, helvetica, sans-serif" font-size="9.731162594595945px" font-weight="normal" font-style="normal" text-anchor="middle" alignment-baseline="middle" style="fill: rgb(68, 68, 68); opacity: 1;">CAPITALISTS</text><circle r="35" cx="483.30076936465196" cy="166.71182107210257" style="fill: rgb(188, 195, 195); opacity: 1;"></circle><text x="483.30076936465196" y="166.71182107210257" dx="0" dy="0" font-family="&quot;proxima nova&quot;, proxima-nova, &quot;Helvetica Neue&quot;, helvetica, sans-serif" font-size="9.731162594595945px" font-weight="normal" font-style="normal" text-anchor="middle" alignment-baseline="middle" style="fill: rgb(68, 68, 68); opacity: 1;">ATHEISTS</text><circle r="35" cx="379.10799774015095" cy="86.07810070886651" style="fill: rgb(188, 195, 195); opacity: 1;"></circle><text x="379.10799774015095" y="86.07810070886651" dx="0" dy="0" font-family="&quot;proxima nova&quot;, proxima-nova, &quot;Helvetica Neue&quot;, helvetica, sans-serif" font-size="9.731162594595945px" font-weight="normal" font-style="normal" text-anchor="middle" alignment-baseline="middle" style="fill: rgb(68, 68, 68); opacity: 1;">BAPTISTS</text><circle r="35" cx="395.79337893298646" cy="539.365718351429" style="fill: rgb(188, 195, 195); opacity: 1;"></circle><text x="395.79337893298646" y="539.365718351429" dx="0" dy="0" font-family="&quot;proxima nova&quot;, proxima-nova, &quot;Helvetica Neue&quot;, helvetica, sans-serif" font-size="9.731162594595945px" font-weight="normal" font-style="normal" text-anchor="middle" alignment-baseline="middle" style="fill: rgb(68, 68, 68); opacity: 1;">CONGRESS</text><circle r="35" cx="336.83180479338995" cy="583.0364448406012" style="fill: rgb(188, 195, 195); opacity: 1;"></circle><text x="336.83180479338995" y="583.0364448406012" dx="0" dy="0" font-family="&quot;proxima nova&quot;, proxima-nova, &quot;Helvetica Neue&quot;, helvetica, sans-serif" font-size="9.731162594595945px" font-weight="normal" font-style="normal" text-anchor="middle" alignment-baseline="middle" style="fill: rgb(68, 68, 68); opacity: 1;">SOCIALISTS</text><circle r="35" cx="125.56194258998329" cy="423.5362220815867" style="fill: rgb(188, 195, 195); opacity: 1;"></circle><text x="125.56194258998329" y="423.5362220815867" dx="0" dy="0" font-family="&quot;proxima nova&quot;, proxima-nova, &quot;Helvetica Neue&quot;, helvetica, sans-serif" font-size="9.731162594595945px" font-weight="normal" font-style="normal" text-anchor="middle" alignment-baseline="middle" style="fill: rgb(68, 68, 68); opacity: 1;">CONFUCIANISTS</text><circle r="35" cx="64.33915601014564" cy="380.14596477894514" style="fill: rgb(188, 195, 195); opacity: 1;"></circle><text x="64.33915601014564" y="380.14596477894514" dx="0" dy="0" font-family="&quot;proxima nova&quot;, proxima-nova, &quot;Helvetica Neue&quot;, helvetica, sans-serif" font-size="9.731162594595945px" font-weight="normal" font-style="normal" text-anchor="middle" alignment-baseline="middle" style="fill: rgb(68, 68, 68); opacity: 1;"> CORE </text><circle r="35" cx="520.6958128837595" cy="479.86049384004974" style="fill: rgb(188, 195, 195); opacity: 1;"></circle><text x="520.6958128837595" y="479.86049384004974" dx="0" dy="0" font-family="&quot;proxima nova&quot;, proxima-nova, &quot;Helvetica Neue&quot;, helvetica, sans-serif" font-size="9.731162594595945px" font-weight="normal" font-style="normal" text-anchor="middle" alignment-baseline="middle" style="fill: rgb(68, 68, 68); opacity: 1;">DEMOCRATS</text><circle r="35" cx="264.4934522627899" cy="558.5433995357453" style="fill: rgb(188, 195, 195); opacity: 1;"></circle><text x="264.4934522627899" y="558.5433995357453" dx="0" dy="0" font-family="&quot;proxima nova&quot;, proxima-nova, &quot;Helvetica Neue&quot;, helvetica, sans-serif" font-size="9.731162594595945px" font-weight="normal" font-style="normal" text-anchor="middle" alignment-baseline="middle" style="fill: rgb(68, 68, 68); opacity: 1;">REPUBLICANS</text><circle r="35" cx="77.28086287344524" cy="224.4518122843248" style="fill: rgb(188, 195, 195); opacity: 1;"></circle><text x="77.28086287344524" y="224.4518122843248" dx="0" dy="0" font-family="&quot;proxima nova&quot;, proxima-nova, &quot;Helvetica Neue&quot;, helvetica, sans-serif" font-size="9.731162594595945px" font-weight="normal" font-style="normal" text-anchor="middle" alignment-baseline="middle" style="fill: rgb(68, 68, 68); opacity: 1;">UNCLE TOMS</text><circle r="35" cx="125.68570117234992" cy="499.9790692896994" style="fill: rgb(188, 195, 195); opacity: 1;"></circle><text x="125.68570117234992" y="499.9790692896994" dx="0" dy="0" font-family="&quot;proxima nova&quot;, proxima-nova, &quot;Helvetica Neue&quot;, helvetica, sans-serif" font-size="9.731162594595945px" font-weight="normal" font-style="normal" text-anchor="middle" alignment-baseline="middle" style="fill: rgb(68, 68, 68); opacity: 1;">BLACKS</text><circle r="35" cx="307.72763395090675" cy="64.4303068971715" style="fill: rgb(188, 195, 195); opacity: 1;"></circle><text x="307.72763395090675" y="64.4303068971715" dx="0" dy="0" font-family="&quot;proxima nova&quot;, proxima-nova, &quot;Helvetica Neue&quot;, helvetica, sans-serif" font-size="9.731162594595945px" font-weight="normal" font-style="normal" text-anchor="middle" alignment-baseline="middle" style="fill: rgb(68, 68, 68); opacity: 1;">AMERICANS</text><circle r="35" cx="532.3999963442637" cy="407.136848474266" style="fill: rgb(188, 195, 195); opacity: 1;"></circle><text x="532.3999963442637" y="407.136848474266" dx="0" dy="0" font-family="&quot;proxima nova&quot;, proxima-nova, &quot;Helvetica Neue&quot;, helvetica, sans-serif" font-size="9.731162594595945px" font-weight="normal" font-style="normal" text-anchor="middle" alignment-baseline="middle" style="fill: rgb(68, 68, 68); opacity: 1;">SCLC</text><circle r="35" cx="457.2065371952576" cy="96.44559797229158" style="fill: rgb(188, 195, 195); opacity: 1;"></circle><text x="457.2065371952576" y="96.44559797229158" dx="0" dy="0" font-family="&quot;proxima nova&quot;, proxima-nova, &quot;Helvetica Neue&quot;, helvetica, sans-serif" font-size="9.731162594595945px" font-weight="normal" font-style="normal" text-anchor="middle" alignment-baseline="middle" style="fill: rgb(68, 68, 68); opacity: 1;">EUROPEANS</text><circle r="35" cx="238.15934551198217" cy="94.50479248775326" style="fill: rgb(188, 195, 195); opacity: 1;"></circle><text x="238.15934551198217" y="94.50479248775326" dx="0" dy="0" font-family="&quot;proxima nova&quot;, proxima-nova, &quot;Helvetica Neue&quot;, helvetica, sans-serif" font-size="9.731162594595945px" font-weight="normal" font-style="normal" text-anchor="middle" alignment-baseline="middle" style="fill: rgb(68, 68, 68); opacity: 1;">WHITES</text><circle r="35" cx="141.98769216873617" cy="180.30547817600228" style="fill: rgb(188, 195, 195); opacity: 1;"></circle><text x="141.98769216873617" y="180.30547817600228" dx="0" dy="0" font-family="&quot;proxima nova&quot;, proxima-nova, &quot;Helvetica Neue&quot;, helvetica, sans-serif" font-size="9.731162594595945px" font-weight="normal" font-style="normal" text-anchor="middle" alignment-baseline="middle" style="fill: rgb(68, 68, 68); opacity: 1;">METHODISTS</text></g></svg>