<svg xmlns="http://www.w3.org/2000/svg" xmlns:xlink="http://www.w3.org/1999/xlink" width="637.0498854994637" height="635.1899748693907" stroke-linejoin="round" title=" | Kumu" version="1.1" style="background-color: rgb(255, 255, 255);"><defs><style type="text/css"> @charset "utf-8"; svg { -webkit-font-smoothing: antialiased; text-rendering: geometricPrecision; } </style></defs><defs></defs><rect x="0" y="0" width="637.0498854994637" height="635.1899748693907" style="fill: rgb(255, 255, 255);"></rect><g fill-opacity="1" stroke-opacity="1"><path d="M295.3038623766877,335.37236703671806A 227.03324044042122,227.03324044042122 0 0,1 107.18364237179219,325.9577927464043" fill="transparent" stroke="rgba(188, 195, 195, 0.6)" stroke-width="6" opacity="0.8"></path><path d="M14.214,0 L0,11.5 L0,-11.5" transform="translate(107.64618526760489, 326.1480765835675) rotate(-152.67794496704508)" fill="rgba(188, 195, 195, 0.6)"></path><path d="M363.1409358484529,323.3929950107105A 221.28194384356254,221.28194384356254 0 0,1 531.3777938993392,395.6031284602899" fill="transparent" stroke="rgba(188, 195, 195, 0.6)" stroke-width="6" opacity="0.8"></path><path d="M14.214,0 L0,11.5 L0,-11.5" transform="translate(531.0093535114895, 395.26488031110364) rotate(47.614014628925545)" fill="rgba(188, 195, 195, 0.6)"></path><path d="M358.3404850589316,340.9518529854795A 224.69692358172122,224.69692358172122 0 0,1 469.2723517820774,490.5139179731357" fill="transparent" stroke="rgba(188, 195, 195, 0.6)" stroke-width="6.473684210526316" opacity="0.8"></path><path d="M14.214,0 L0,11.5 L0,-11.5" transform="translate(469.1249723211056, 490.0359685375682) rotate(77.86303972517811)" fill="rgba(188, 195, 195, 0.6)"></path><path d="M294.2478159941941,314.5284650296642A 192.212270940815,192.212270940815 0 0,1 169.06211093914223,220.5778989462562" fill="transparent" stroke="rgba(188, 195, 195, 0.6)" stroke-width="6" opacity="0.8"></path><path d="M14.214,0 L0,11.5 L0,-11.5" transform="translate(169.34740038526792, 220.98876167721662) rotate(-119.14393365913739)" fill="rgba(188, 195, 195, 0.6)"></path><path d="M293.16781738844094,324.6250056698885A 157.44630364042268,157.44630364042268 0 0,1 167.83541197602696,290.2854096556591" fill="transparent" stroke="rgba(188, 195, 195, 0.6)" stroke-width="42" opacity="0.8"></path><path d="M64.89,0 L0,52.5 L0,-52.5" transform="translate(168.27531345213092, 290.5305353529018) rotate(-140.35719901801878)" fill="rgba(188, 195, 195, 0.6)"></path><path d="M351.41999789596537,349.3961016374395A 208.05537704126516,208.05537704126516 0 0,1 406.8672410955735,511.12507519509813" fill="transparent" stroke="rgba(188, 195, 195, 0.6)" stroke-width="6.947368421052632" opacity="0.8"></path><path d="M14.214,0 L0,11.5 L0,-11.5" transform="translate(406.86703167919563, 510.62489925294585) rotate(95.28161393668039)" fill="rgba(188, 195, 195, 0.6)"></path><path d="M361.66823188262373,333.3067356532411A 178.58544292374407,178.58544292374407 0 0,1 473.9885832785327,423.6514549779967" fill="transparent" stroke="rgba(188, 195, 195, 0.6)" stroke-width="6.947368421052632" opacity="0.8"></path><path d="M14.214,0 L0,11.5 L0,-11.5" transform="translate(473.71329345301564, 423.233799256236) rotate(62.552402879207456)" fill="rgba(188, 195, 195, 0.6)"></path><path d="M357.07183441947916,303.5618107292039A 209.1725103774241,209.1725103774241 0 0,1 525.6331040131513,269.3855181550307" fill="transparent" stroke="rgba(188, 195, 195, 0.6)" stroke-width="6" opacity="0.8"></path><path d="M14.214,0 L0,11.5 L0,-11.5" transform="translate(525.1371807712668, 269.32044337959314) rotate(12.759626830278172)" fill="rgba(188, 195, 195, 0.6)"></path><path d="M320.83116045332594,289.0318668509158A 199.79546040215286,199.79546040215286 0 0,1 350.7438036340334,128.36498354794958" fill="transparent" stroke="rgba(188, 195, 195, 0.6)" stroke-width="6" opacity="0.8"></path><path d="M14.214,0 L0,11.5 L0,-11.5" transform="translate(350.5000798553662, 128.80177394253803) rotate(-55.36842229369426)" fill="rgba(188, 195, 195, 0.6)"></path><path d="M340.531068534119,290.52634123642156A 216.10557402367664,216.10557402367664 0 0,1 463.6289987447676,161.48968702220938" fill="transparent" stroke="rgba(188, 195, 195, 0.6)" stroke-width="7.421052631578948" opacity="0.8"></path><path d="M14.214,0 L0,11.5 L0,-11.5" transform="translate(463.1840904984264, 161.71820997606451) rotate(-22.033145504871584)" fill="rgba(188, 195, 195, 0.6)"></path><path d="M303.46686102879585,298.43705243088255A 160.31107592258144,160.31107592258144 0 0,1 247.4814354650315,180.64443347567942" fill="transparent" stroke="rgba(188, 195, 195, 0.6)" stroke-width="25.894736842105264" opacity="0.8"></path><path d="M40.00736842105263,0 L0,32.36842105263158 L0,-32.36842105263158" transform="translate(247.56977482056814, 181.13822685357195) rotate(-91.47720522807792)" fill="rgba(188, 195, 195, 0.6)"></path><path d="M361.63832436537945,313.1139478473715A 201.512043645113,201.512043645113 0 0,1 525.7915117724863,329.7469914027005" fill="transparent" stroke="rgba(188, 195, 195, 0.6)" stroke-width="6" opacity="0.8"></path><path d="M14.214,0 L0,11.5 L0,-11.5" transform="translate(525.3362220581578, 329.5398778748731) rotate(29.8965201086967)" fill="rgba(188, 195, 195, 0.6)"></path><path d="M311.02740353110295,292.72936298386145A 221.9665808923647,221.9665808923647 0 0,1 291.03286731553305,110.11384310880618" fill="transparent" stroke="rgba(188, 195, 195, 0.6)" stroke-width="6" opacity="0.8"></path><path d="M14.214,0 L0,11.5 L0,-11.5" transform="translate(290.919537162299, 110.60099364159623) rotate(-71.85541320824106)" fill="rgba(188, 195, 195, 0.6)"></path><path d="M313.13579018182566,354.88019180477875A 220.24294901193477,220.24294901193477 0 0,1 176.9834610832935,475.845515136799" fill="transparent" stroke="rgba(188, 195, 195, 0.6)" stroke-width="6" opacity="0.8"></path><path d="M14.214,0 L0,11.5 L0,-11.5" transform="translate(177.44612288943392, 475.6555010489438) rotate(162.75103818073802)" fill="rgba(188, 195, 195, 0.6)"></path><path d="M304.45101822725417,349.02382375361225A 228.72602432895619,228.72602432895619 0 0,1 131.3124895271851,427.0547043576904" fill="transparent" stroke="rgba(188, 195, 195, 0.6)" stroke-width="6" opacity="0.8"></path><path d="M14.214,0 L0,11.5 L0,-11.5" transform="translate(131.81094964526457, 427.01359954914983) rotate(-179.78238891591457)" fill="rgba(188, 195, 195, 0.6)"></path><path d="M343.25425207246485,354.8288743471332A 208.52252557324812,208.52252557324812 0 0,1 351.6449662620439,526.0201601106562" fill="transparent" stroke="rgba(188, 195, 195, 0.6)" stroke-width="6" opacity="0.8"></path><path d="M14.214,0 L0,11.5 L0,-11.5" transform="translate(351.78375118656413, 525.5396248235238) rotate(111.40597045401272)" fill="rgba(188, 195, 195, 0.6)"></path><path d="M322.92458969435324,357.8690373610595A 208.41253824239323,208.41253824239323 0 0,1 233.8168905226134,504.1640181908685" fill="transparent" stroke="rgba(188, 195, 195, 0.6)" stroke-width="6" opacity="0.8"></path><path d="M14.214,0 L0,11.5 L0,-11.5" transform="translate(234.20148656524546, 503.84423476051575) rotate(145.555880730327)" fill="rgba(188, 195, 195, 0.6)"></path><path d="M298.8641957169881,342.4395929059109A 168.75677656967875,168.75677656967875 0 0,1 166.24722661413946,369.0471728321144" fill="transparent" stroke="rgba(188, 195, 195, 0.6)" stroke-width="6" opacity="0.8"></path><path d="M14.214,0 L0,11.5 L0,-11.5" transform="translate(166.74469936688763, 369.0997111541059) rotate(-167.78308827963798)" fill="rgba(188, 195, 195, 0.6)"></path><path d="M349.83097386402585,295.7908444128582A 201.19768417782217,201.19768417782217 0 0,1 493.7827915831688,215.75192051206375" fill="transparent" stroke="rgba(188, 195, 195, 0.6)" stroke-width="6" opacity="0.8"></path><path d="M14.214,0 L0,11.5 L0,-11.5" transform="translate(493.2908402112256, 215.84230314139722) rotate(-4.968547030545981)" fill="rgba(188, 195, 195, 0.6)"></path><path d="M333.1694017342394,357.8969086809551A 215.98299581891172,215.98299581891172 0 0,1 288.0743351859339,530.320705072398" fill="transparent" stroke="rgba(188, 195, 195, 0.6)" stroke-width="6" opacity="0.8"></path><path d="M14.214,0 L0,11.5 L0,-11.5" transform="translate(288.35268533349864, 529.9051483031777) rotate(128.97112755731143)" fill="rgba(188, 195, 195, 0.6)"></path><path d="M331.0280706899738,288.3792380632243A 208.10695638335994,208.10695638335994 0 0,1 409.99263819345015,136.6842193792258" fill="transparent" stroke="rgba(188, 195, 195, 0.6)" stroke-width="6.947368421052632" opacity="0.8"></path><path d="M14.214,0 L0,11.5 L0,-11.5" transform="translate(409.6304207604111, 137.02914615670986) rotate(-38.29471542092432)" fill="rgba(188, 195, 195, 0.6)"></path><path d="M297.56970227223246,306.2193126787902A 227.09999321588327,227.09999321588327 0 0,1 182.16474048650588,157.25825429501998" fill="transparent" stroke="rgba(188, 195, 195, 0.6)" stroke-width="9.31578947368421" opacity="0.8"></path><path d="M14.392894736842106,0 L0,11.644736842105264 L0,-11.644736842105264" transform="translate(182.32161841420873, 157.73317203952232) rotate(-103.30570439637793)" fill="rgba(188, 195, 195, 0.6)"></path><circle r="35" cx="328.1411886198193" cy="323.2599764715926" style="fill: rgb(188, 195, 195); opacity: 1;"></circle><text x="328.1411886198193" y="323.2599764715926" dx="0" dy="0" font-family="&quot;proxima nova&quot;, proxima-nova, &quot;Helvetica Neue&quot;, helvetica, sans-serif" font-size="9.731162594595945px" font-weight="normal" font-style="normal" text-anchor="middle" alignment-baseline="middle" style="fill: rgb(68, 68, 68); opacity: 1;">MALCOM X</text><circle r="35" cx="63.956812977248376" cy="303.57700817675635" style="fill: rgb(188, 195, 195); opacity: 1;"></circle><text x="63.956812977248376" y="303.57700817675635" dx="0" dy="0" font-family="&quot;proxima nova&quot;, proxima-nova, &quot;Helvetica Neue&quot;, helvetica, sans-serif" font-size="9.731162594595945px" font-weight="normal" font-style="normal" text-anchor="middle" alignment-baseline="middle" style="fill: rgb(68, 68, 68); opacity: 1;">SCLC</text><circle r="35" cx="564.1584610088805" cy="431.5856228936484" style="fill: rgb(188, 195, 195); opacity: 1;"></circle><text x="564.1584610088805" y="431.5856228936484" dx="0" dy="0" font-family="&quot;proxima nova&quot;, proxima-nova, &quot;Helvetica Neue&quot;, helvetica, sans-serif" font-size="9.731162594595945px" font-weight="normal" font-style="normal" text-anchor="middle" alignment-baseline="middle" style="fill: rgb(68, 68, 68); opacity: 1;"> CORE </text><circle r="35" cx="479.4639201123291" cy="538.1115213303491" style="fill: rgb(188, 195, 195); opacity: 1;"></circle><text x="479.4639201123291" y="538.1115213303491" dx="0" dy="0" font-family="&quot;proxima nova&quot;, proxima-nova, &quot;Helvetica Neue&quot;, helvetica, sans-serif" font-size="9.731162594595945px" font-weight="normal" font-style="normal" text-anchor="middle" alignment-baseline="middle" style="fill: rgb(68, 68, 68); opacity: 1;">CONGRESS</text><circle r="35" cx="145.40418192822392" cy="178.04880378135516" style="fill: rgb(188, 195, 195); opacity: 1;"></circle><text x="145.40418192822392" y="178.04880378135516" dx="0" dy="0" font-family="&quot;proxima nova&quot;, proxima-nova, &quot;Helvetica Neue&quot;, helvetica, sans-serif" font-size="9.731162594595945px" font-weight="normal" font-style="normal" text-anchor="middle" alignment-baseline="middle" style="fill: rgb(68, 68, 68); opacity: 1;">KENNEDY FAMILY</text><circle r="35" cx="91.65388810128815" cy="227.04731028027743" style="fill: rgb(188, 195, 195); opacity: 1;"></circle><text x="91.65388810128815" y="227.04731028027743" dx="0" dy="0" font-family="&quot;proxima nova&quot;, proxima-nova, &quot;Helvetica Neue&quot;, helvetica, sans-serif" font-size="9.731162594595945px" font-weight="normal" font-style="normal" text-anchor="middle" alignment-baseline="middle" style="fill: rgb(68, 68, 68); opacity: 1;">BLACKS</text><circle r="35" cx="402.34090160728687" cy="559.5859167765171" style="fill: rgb(188, 195, 195); opacity: 1;"></circle><text x="402.34090160728687" y="559.5859167765171" dx="0" dy="0" font-family="&quot;proxima nova&quot;, proxima-nova, &quot;Helvetica Neue&quot;, helvetica, sans-serif" font-size="9.731162594595945px" font-weight="normal" font-style="normal" text-anchor="middle" alignment-baseline="middle" style="fill: rgb(68, 68, 68); opacity: 1;">BAPTISTS</text><circle r="35" cx="496.372285485318" cy="466.85868808965404" style="fill: rgb(188, 195, 195); opacity: 1;"></circle><text x="496.372285485318" y="466.85868808965404" dx="0" dy="0" font-family="&quot;proxima nova&quot;, proxima-nova, &quot;Helvetica Neue&quot;, helvetica, sans-serif" font-size="9.731162594595945px" font-weight="normal" font-style="normal" text-anchor="middle" alignment-baseline="middle" style="fill: rgb(68, 68, 68); opacity: 1;">METHODISTS</text><circle r="35" cx="573.0930725222154" cy="280.1802242397499" style="fill: rgb(188, 195, 195); opacity: 1;"></circle><text x="573.0930725222154" y="280.1802242397499" dx="0" dy="0" font-family="&quot;proxima nova&quot;, proxima-nova, &quot;Helvetica Neue&quot;, helvetica, sans-serif" font-size="9.731162594595945px" font-weight="normal" font-style="normal" text-anchor="middle" alignment-baseline="middle" style="fill: rgb(68, 68, 68); opacity: 1;">DEMOCRATS</text><circle r="35" cx="378.44154616121193" cy="88.34603296826651" style="fill: rgb(188, 195, 195); opacity: 1;"></circle><text x="378.44154616121193" y="88.34603296826651" dx="0" dy="0" font-family="&quot;proxima nova&quot;, proxima-nova, &quot;Helvetica Neue&quot;, helvetica, sans-serif" font-size="9.731162594595945px" font-weight="normal" font-style="normal" text-anchor="middle" alignment-baseline="middle" style="fill: rgb(68, 68, 68); opacity: 1;">REPUBLICANS</text><circle r="35" cx="508.76516443104936" cy="143.2715806313372" style="fill: rgb(188, 195, 195); opacity: 1;"></circle><text x="508.76516443104936" y="143.2715806313372" dx="0" dy="0" font-family="&quot;proxima nova&quot;, proxima-nova, &quot;Helvetica Neue&quot;, helvetica, sans-serif" font-size="9.731162594595945px" font-weight="normal" font-style="normal" text-anchor="middle" alignment-baseline="middle" style="fill: rgb(68, 68, 68); opacity: 1;">AMERICANS</text><circle r="35" cx="245.64171785112" cy="106.37200828311876" style="fill: rgb(188, 195, 195); opacity: 1;"></circle><text x="245.64171785112" y="106.37200828311876" dx="0" dy="0" font-family="&quot;proxima nova&quot;, proxima-nova, &quot;Helvetica Neue&quot;, helvetica, sans-serif" font-size="9.731162594595945px" font-weight="normal" font-style="normal" text-anchor="middle" alignment-baseline="middle" style="fill: rgb(68, 68, 68); opacity: 1;">EUROPEANS</text><circle r="35" cx="567.9609319180308" cy="354.046728409062" style="fill: rgb(188, 195, 195); opacity: 1;"></circle><text x="567.9609319180308" y="354.046728409062" dx="0" dy="0" font-family="&quot;proxima nova&quot;, proxima-nova, &quot;Helvetica Neue&quot;, helvetica, sans-serif" font-size="9.731162594595945px" font-weight="normal" font-style="normal" text-anchor="middle" alignment-baseline="middle" style="fill: rgb(68, 68, 68); opacity: 1;">BUDDHISTS</text><circle r="35" cx="306.23309647146596" cy="63.87227158497234" style="fill: rgb(188, 195, 195); opacity: 1;"></circle><text x="306.23309647146596" y="63.87227158497234" dx="0" dy="0" font-family="&quot;proxima nova&quot;, proxima-nova, &quot;Helvetica Neue&quot;, helvetica, sans-serif" font-size="9.731162594595945px" font-weight="normal" font-style="normal" text-anchor="middle" alignment-baseline="middle" style="fill: rgb(68, 68, 68); opacity: 1;">MUSLIMS</text><circle r="35" cx="130.48420835446518" cy="490.23663013805515" style="fill: rgb(188, 195, 195); opacity: 1;"></circle><text x="130.48420835446518" y="490.23663013805515" dx="0" dy="0" font-family="&quot;proxima nova&quot;, proxima-nova, &quot;Helvetica Neue&quot;, helvetica, sans-serif" font-size="9.731162594595945px" font-weight="normal" font-style="normal" text-anchor="middle" alignment-baseline="middle" style="fill: rgb(68, 68, 68); opacity: 1;">CHRISTIANS</text><circle r="35" cx="82.63551523658109" cy="426.82682888056047" style="fill: rgb(188, 195, 195); opacity: 1;"></circle><text x="82.63551523658109" y="426.82682888056047" dx="0" dy="0" font-family="&quot;proxima nova&quot;, proxima-nova, &quot;Helvetica Neue&quot;, helvetica, sans-serif" font-size="9.731162594595945px" font-weight="normal" font-style="normal" text-anchor="middle" alignment-baseline="middle" style="fill: rgb(68, 68, 68); opacity: 1;">CONFUCIANISTS</text><circle r="35" cx="333.8380152977906" cy="571.3177032844183" style="fill: rgb(188, 195, 195); opacity: 1;"></circle><text x="333.8380152977906" y="571.3177032844183" dx="0" dy="0" font-family="&quot;proxima nova&quot;, proxima-nova, &quot;Helvetica Neue&quot;, helvetica, sans-serif" font-size="9.731162594595945px" font-weight="normal" font-style="normal" text-anchor="middle" alignment-baseline="middle" style="fill: rgb(68, 68, 68); opacity: 1;">ATHEISTS</text><circle r="35" cx="118.70401577439102" cy="358.69810397102265" style="fill: rgb(188, 195, 195); opacity: 1;"></circle><text x="118.70401577439102" y="358.69810397102265" dx="0" dy="0" font-family="&quot;proxima nova&quot;, proxima-nova, &quot;Helvetica Neue&quot;, helvetica, sans-serif" font-size="9.731162594595945px" font-weight="normal" font-style="normal" text-anchor="middle" alignment-baseline="middle" style="fill: rgb(68, 68, 68); opacity: 1;">SOCIALISTS</text><circle r="35" cx="542.2735659486596" cy="211.58396390437497" style="fill: rgb(188, 195, 195); opacity: 1;"></circle><text x="542.2735659486596" y="211.58396390437497" dx="0" dy="0" font-family="&quot;proxima nova&quot;, proxima-nova, &quot;Helvetica Neue&quot;, helvetica, sans-serif" font-size="9.731162594595945px" font-weight="normal" font-style="normal" text-anchor="middle" alignment-baseline="middle" style="fill: rgb(68, 68, 68); opacity: 1;">CAPITALISTS</text><circle r="35" cx="257.42685486678585" cy="568.1347423645823" style="fill: rgb(188, 195, 195); opacity: 1;"></circle><text x="257.42685486678585" y="568.1347423645823" dx="0" dy="0" font-family="&quot;proxima nova&quot;, proxima-nova, &quot;Helvetica Neue&quot;, helvetica, sans-serif" font-size="9.731162594595945px" font-weight="normal" font-style="normal" text-anchor="middle" alignment-baseline="middle" style="fill: rgb(68, 68, 68); opacity: 1;">AFRICANS</text><circle r="35" cx="448.2205245260502" cy="106.5582974487618" style="fill: rgb(188, 195, 195); opacity: 1;"></circle><text x="448.2205245260502" y="106.5582974487618" dx="0" dy="0" font-family="&quot;proxima nova&quot;, proxima-nova, &quot;Helvetica Neue&quot;, helvetica, sans-serif" font-size="9.731162594595945px" font-weight="normal" font-style="normal" text-anchor="middle" alignment-baseline="middle" style="fill: rgb(68, 68, 68); opacity: 1;">WHITES</text><circle r="35" cx="170.9630350195163" cy="109.70434209054613" style="fill: rgb(188, 195, 195); opacity: 1;"></circle><text x="170.9630350195163" y="109.70434209054613" dx="0" dy="0" font-family="&quot;proxima nova&quot;, proxima-nova, &quot;Helvetica Neue&quot;, helvetica, sans-serif" font-size="9.731162594595945px" font-weight="normal" font-style="normal" text-anchor="middle" alignment-baseline="middle" style="fill: rgb(68, 68, 68); opacity: 1;">UNCLE TOMS</text></g><g fill-opacity="1" stroke-opacity="1"><circle r="35" cx="193.6521466371746" cy="531.6548344369007" style="fill: rgb(188, 195, 195); opacity: 1;"></circle><circle r="35" cx="193.6521466371746" cy="531.6548344369007" style="fill: transparent; stroke: rgb(183, 42, 42); stroke-width: 0.990812; opacity: 1;"></circle><text x="193.6521466371746" y="531.6548344369007" dx="0" dy="0" font-family="&quot;proxima nova&quot;, proxima-nova, &quot;Helvetica Neue&quot;, helvetica, sans-serif" font-size="9.731162594595945px" font-weight="normal" font-style="normal" text-anchor="middle" alignment-baseline="middle" style="fill: rgb(68, 68, 68); opacity: 1;">COMMUNISTS</text></g></svg>