<svg xmlns="http://www.w3.org/2000/svg" xmlns:xlink="http://www.w3.org/1999/xlink" width="564.9649154804438" height="567.0796401762409" stroke-linejoin="round" title=" | Kumu" version="1.1" style="background-color: rgb(255, 255, 255);"><defs><style type="text/css"> @charset "utf-8"; svg { -webkit-font-smoothing: antialiased; text-rendering: geometricPrecision; } </style></defs><defs></defs><rect x="0" y="0" width="564.9649154804438" height="567.0796401762409" style="fill: rgb(255, 255, 255);"></rect><g fill-opacity="1" stroke-opacity="1"></g><g fill-opacity="1" stroke-opacity="1"><path d="M248.39651636316893,271.35980238490146A 185.1548266656498,185.1548266656498 0 0,1 136.63388312497594,171.15889930572885" fill="transparent" stroke="rgba(188, 195, 195, 0.6)" stroke-width="6" opacity="0.8"></path><path d="M14.214,0 L0,11.5 L0,-11.5" transform="translate(136.88441893572417, 171.5918442137255) rotate(-114.26871803751513)" fill="rgba(188, 195, 195, 0.6)"></path><path d="M316.24379376864897,286.0644844996649A 178.4085267721682,178.4085267721682 0 0,1 444.5479597687033,351.40893754591417" fill="transparent" stroke="rgba(188, 195, 195, 0.6)" stroke-width="6" opacity="0.8"></path><path d="M14.214,0 L0,11.5 L0,-11.5" transform="translate(444.1928978965331, 351.0565852032463) rotate(50.727324510752)" fill="rgba(188, 195, 195, 0.6)"></path><path d="M289.67268595983614,249.0960494687641A 182.93954761891285,182.93954761891285 0 0,1 376.6271965928812,129.21916180165957" fill="transparent" stroke="rgba(188, 195, 195, 0.6)" stroke-width="6" opacity="0.8"></path><path d="M14.214,0 L0,11.5 L0,-11.5" transform="translate(376.22286231066937, 129.51365626769297) rotate(-30.228038910578697)" fill="rgba(188, 195, 195, 0.6)"></path><path d="M313.95076978776643,270.31096406221457A 180.74086629316338,180.74086629316338 0 0,1 460.0371814756468,272.23476214482764" fill="transparent" stroke="rgba(188, 195, 195, 0.6)" stroke-width="6" opacity="0.8"></path><path d="M14.214,0 L0,11.5 L0,-11.5" transform="translate(459.56320848600615, 272.0748665820424) rotate(24.53298215770483)" fill="rgba(188, 195, 195, 0.6)"></path><path d="M283.933444292609,318.0029538602028A 182.9025105979713,182.9025105979713 0 0,1 238.10266303353777,458.79053628637" fill="transparent" stroke="rgba(188, 195, 195, 0.6)" stroke-width="6" opacity="0.8"></path><path d="M14.214,0 L0,11.5 L0,-11.5" transform="translate(238.39672960822384, 458.38589062051955) rotate(131.84720766077012)" fill="rgba(188, 195, 195, 0.6)"></path><path d="M299.9221821156844,312.775410843069A 122.7245251341476,122.7245251341476 0 0,1 327.06396921757414,408.37331676154827" fill="transparent" stroke="rgba(188, 195, 195, 0.6)" stroke-width="42" opacity="0.8"></path><path d="M64.89,0 L0,52.5 L0,-52.5" transform="translate(327.0292988544204, 407.8698958541713) rotate(97.97286418395053)" fill="rgba(188, 195, 195, 0.6)"></path><path d="M305.2344746644409,257.49465575844016A 180.26037701028602,180.26037701028602 0 0,1 437.4279843058506,195.88063421725164" fill="transparent" stroke="rgba(188, 195, 195, 0.6)" stroke-width="10.235294117647058" opacity="0.8"></path><path d="M15.813529411764703,0 L0,12.794117647058822 L0,-12.794117647058822" transform="translate(436.93170373136275, 195.94365958239615) rotate(-1.1871766258025194)" fill="rgba(188, 195, 195, 0.6)"></path><path d="M311.7681357631266,300.4446645376688A 183.71966005396672,183.71966005396672 0 0,1 403.4534923339521,417.6432511606355" fill="transparent" stroke="rgba(188, 195, 195, 0.6)" stroke-width="6" opacity="0.8"></path><path d="M14.214,0 L0,11.5 L0,-11.5" transform="translate(403.28217721611963, 417.17329051000394) rotate(75.79299865788244)" fill="rgba(188, 195, 195, 0.6)"></path><path d="M272.2126514718125,249.31611235051307A 182.74994371595517,182.74994371595517 0 0,1 290.39753036915954,102.5171102752891" fill="transparent" stroke="rgba(188, 195, 195, 0.6)" stroke-width="6" opacity="0.8"></path><path d="M14.214,0 L0,11.5 L0,-11.5" transform="translate(290.18588860589256, 102.97034452912007) rotate(-59.12548086853417)" fill="rgba(188, 195, 195, 0.6)"></path><path d="M257.7290401853563,257.28779538098524A 181.0431846470332,181.0431846470332 0 0,1 206.9454928557176,120.00657788517213" fill="transparent" stroke="rgba(188, 195, 195, 0.6)" stroke-width="6" opacity="0.8"></path><path d="M14.214,0 L0,11.5 L0,-11.5" transform="translate(206.96644698175882, 120.50635522013002) rotate(-86.51690244102096)" fill="rgba(188, 195, 195, 0.6)"></path><path d="M253.43845938896868,304.18817318653873A 184.67111728083384,184.67111728083384 0 0,1 108.72842982833302,342.37812347632854" fill="transparent" stroke="rgba(188, 195, 195, 0.6)" stroke-width="6" opacity="0.8"></path><path d="M14.214,0 L0,11.5 L0,-11.5" transform="translate(109.22782949515809, 342.4065885787844) rotate(-170.93833727015377)" fill="rgba(188, 195, 195, 0.6)"></path><path d="M246.86196465624107,288.9457047875376A 173.17727290660346,173.17727290660346 0 0,1 109.56596121155462,260.68097547825084" fill="transparent" stroke="rgba(188, 195, 195, 0.6)" stroke-width="14.470588235294116" opacity="0.8"></path><path d="M22.357058823529407,0 L0,18.088235294117645 L0,-18.088235294117645" transform="translate(110.00531382640662, 260.9207777476978) rotate(-144.5538760100953)" fill="rgba(188, 195, 195, 0.6)"></path><path d="M267.12836192259806,315.0685302608061A 184.57092768608186,184.57092768608186 0 0,1 159.02596043072515,418.44222102572553" fill="transparent" stroke="rgba(188, 195, 195, 0.6)" stroke-width="6" opacity="0.8"></path><path d="M14.214,0 L0,11.5 L0,-11.5" transform="translate(159.476775199786, 418.2254803967369) rotate(160.12461356021296)" fill="rgba(188, 195, 195, 0.6)"></path><circle r="35" cx="487.6724165293515" cy="194.89215437949207" style="fill: rgb(188, 195, 195); opacity: 1;"></circle><text x="487.6724165293515" y="194.89215437949207" dx="0" dy="0" font-family="&quot;proxima nova&quot;, proxima-nova, &quot;Helvetica Neue&quot;, helvetica, sans-serif" font-size="9.731162594595945px" font-weight="normal" font-style="normal" text-anchor="middle" alignment-baseline="middle" style="fill: rgb(68, 68, 68); opacity: 1;">AMERICANS</text><circle r="35" cx="60.68022343092929" cy="334.66383555171797" style="fill: rgb(188, 195, 195); opacity: 1;"></circle><text x="60.68022343092929" y="334.66383555171797" dx="0" dy="0" font-family="&quot;proxima nova&quot;, proxima-nova, &quot;Helvetica Neue&quot;, helvetica, sans-serif" font-size="9.731162594595945px" font-weight="normal" font-style="normal" text-anchor="middle" alignment-baseline="middle" style="fill: rgb(68, 68, 68); opacity: 1;">PROTESTANTS</text><circle r="35" cx="116.6782758047182" cy="126.77497339893537" style="fill: rgb(188, 195, 195); opacity: 1;"></circle><text x="116.6782758047182" y="126.77497339893537" dx="0" dy="0" font-family="&quot;proxima nova&quot;, proxima-nova, &quot;Helvetica Neue&quot;, helvetica, sans-serif" font-size="9.731162594595945px" font-weight="normal" font-style="normal" text-anchor="middle" alignment-baseline="middle" style="fill: rgb(68, 68, 68); opacity: 1;">HUMAN KIND</text><circle r="35" cx="475.3107734021045" cy="389.11221356825405" style="fill: rgb(188, 195, 195); opacity: 1;"></circle><text x="475.3107734021045" y="389.11221356825405" dx="0" dy="0" font-family="&quot;proxima nova&quot;, proxima-nova, &quot;Helvetica Neue&quot;, helvetica, sans-serif" font-size="9.731162594595945px" font-weight="normal" font-style="normal" text-anchor="middle" alignment-baseline="middle" style="fill: rgb(68, 68, 68); opacity: 1;">EUROPEANS</text><circle r="35" cx="205.599530230838" cy="495.00679265709" style="fill: rgb(188, 195, 195); opacity: 1;"></circle><text x="205.599530230838" y="495.00679265709" dx="0" dy="0" font-family="&quot;proxima nova&quot;, proxima-nova, &quot;Helvetica Neue&quot;, helvetica, sans-serif" font-size="9.731162594595945px" font-weight="normal" font-style="normal" text-anchor="middle" alignment-baseline="middle" style="fill: rgb(68, 68, 68); opacity: 1;">AFRICAN-AMERICANS</text><circle r="35" cx="504.28469204951455" cy="292.48671942635747" style="fill: rgb(188, 195, 195); opacity: 1;"></circle><text x="504.28469204951455" y="292.48671942635747" dx="0" dy="0" font-family="&quot;proxima nova&quot;, proxima-nova, &quot;Helvetica Neue&quot;, helvetica, sans-serif" font-size="9.731162594595945px" font-weight="normal" font-style="normal" text-anchor="middle" alignment-baseline="middle" style="fill: rgb(68, 68, 68); opacity: 1;">BLACKS</text><circle r="35" cx="281.3698228714932" cy="283.0969680524764" style="fill: rgb(188, 195, 195); opacity: 1;"></circle><text x="281.3698228714932" y="283.0969680524764" dx="0" dy="0" font-family="&quot;proxima nova&quot;, proxima-nova, &quot;Helvetica Neue&quot;, helvetica, sans-serif" font-size="9.731162594595945px" font-weight="normal" font-style="normal" text-anchor="middle" alignment-baseline="middle" style="fill: rgb(68, 68, 68); opacity: 1;"> MLK </text><circle r="35" cx="418.69888040214676" cy="104.76418768407535" style="fill: rgb(188, 195, 195); opacity: 1;"></circle><text x="418.69888040214676" y="104.76418768407535" dx="0" dy="0" font-family="&quot;proxima nova&quot;, proxima-nova, &quot;Helvetica Neue&quot;, helvetica, sans-serif" font-size="9.731162594595945px" font-weight="normal" font-style="normal" text-anchor="middle" alignment-baseline="middle" style="fill: rgb(68, 68, 68); opacity: 1;">JEWISH</text><circle r="35" cx="63.35884309756375" cy="227.71430809264803" style="fill: rgb(188, 195, 195); opacity: 1;"></circle><text x="63.35884309756375" y="227.71430809264803" dx="0" dy="0" font-family="&quot;proxima nova&quot;, proxima-nova, &quot;Helvetica Neue&quot;, helvetica, sans-serif" font-size="9.731162594595945px" font-weight="normal" font-style="normal" text-anchor="middle" alignment-baseline="middle" style="fill: rgb(68, 68, 68); opacity: 1;">WHITES</text><circle r="35" cx="113.24396938895799" cy="434.9390623121876" style="fill: rgb(188, 195, 195); opacity: 1;"></circle><text x="113.24396938895799" y="434.9390623121876" dx="0" dy="0" font-family="&quot;proxima nova&quot;, proxima-nova, &quot;Helvetica Neue&quot;, helvetica, sans-serif" font-size="9.731162594595945px" font-weight="normal" font-style="normal" text-anchor="middle" alignment-baseline="middle" style="fill: rgb(68, 68, 68); opacity: 1;">FOUNDING FATHERS</text><circle r="35" cx="415.3474998337863" cy="464.8304924839823" style="fill: rgb(188, 195, 195); opacity: 1;"></circle><text x="415.3474998337863" y="464.8304924839823" dx="0" dy="0" font-family="&quot;proxima nova&quot;, proxima-nova, &quot;Helvetica Neue&quot;, helvetica, sans-serif" font-size="9.731162594595945px" font-weight="normal" font-style="normal" text-anchor="middle" alignment-baseline="middle" style="fill: rgb(68, 68, 68); opacity: 1;">ACTIVISTS</text><circle r="35" cx="209.95309440203982" cy="71.43754882917506" style="fill: rgb(188, 195, 195); opacity: 1;"></circle><text x="209.95309440203982" y="71.43754882917506" dx="0" dy="0" font-family="&quot;proxima nova&quot;, proxima-nova, &quot;Helvetica Neue&quot;, helvetica, sans-serif" font-size="9.731162594595945px" font-weight="normal" font-style="normal" text-anchor="middle" alignment-baseline="middle" style="fill: rgb(68, 68, 68); opacity: 1;">POC</text><circle r="35" cx="315.41299577680724" cy="60.776347280738264" style="fill: rgb(188, 195, 195); opacity: 1;"></circle><text x="315.41299577680724" y="60.776347280738264" dx="0" dy="0" font-family="&quot;proxima nova&quot;, proxima-nova, &quot;Helvetica Neue&quot;, helvetica, sans-serif" font-size="9.731162594595945px" font-weight="normal" font-style="normal" text-anchor="middle" alignment-baseline="middle" style="fill: rgb(68, 68, 68); opacity: 1;">CATHOLICS</text><circle r="35" cx="313.242923692075" cy="506.3032928955026" style="fill: rgb(188, 195, 195); opacity: 1;"></circle><text x="313.242923692075" y="506.3032928955026" dx="0" dy="0" font-family="&quot;proxima nova&quot;, proxima-nova, &quot;Helvetica Neue&quot;, helvetica, sans-serif" font-size="9.731162594595945px" font-weight="normal" font-style="normal" text-anchor="middle" alignment-baseline="middle" style="fill: rgb(68, 68, 68); opacity: 1;">AFRICANS</text></g></svg>