<svg xmlns="http://www.w3.org/2000/svg" xmlns:xlink="http://www.w3.org/1999/xlink" width="562.5191389271968" height="566.707720290909" stroke-linejoin="round" title=" | Kumu" version="1.1" style="background-color: rgb(255, 255, 255);"><defs><style type="text/css"> @charset "utf-8"; svg { -webkit-font-smoothing: antialiased; text-rendering: geometricPrecision; } </style></defs><defs></defs><rect x="0" y="0" width="562.5191389271968" height="566.707720290909" style="fill: rgb(255, 255, 255);"></rect><g fill-opacity="1" stroke-opacity="1"><path d="M250.63283449176907,297.82091149043A 118.40396522264004,118.40396522264004 0 0,1 156.23576302570632,313.03920571602356" fill="transparent" stroke="rgba(188, 195, 195, 0.6)" stroke-width="42" opacity="0.8"></path><path d="M64.89,0 L0,52.5 L0,-52.5" transform="translate(156.74005758518257, 313.0610868984931) rotate(-165.40547430838285)" fill="rgba(188, 195, 195, 0.6)"></path><path d="M263.6056140366089,253.3874943653586A 180.57330952433966,180.57330952433966 0 0,1 237.4813030240285,109.61092722036096" fill="transparent" stroke="rgba(188, 195, 195, 0.6)" stroke-width="10.235294117647058" opacity="0.8"></path><path d="M15.813529411764703,0 L0,12.794117647058822 L0,-12.794117647058822" transform="translate(237.41629331408268, 110.10695108903076) rotate(-76.49044376814943)" fill="rgba(188, 195, 195, 0.6)"></path><path d="M296.9200604899304,251.15201629245985A 184.0165300764464,184.0165300764464 0 0,1 405.78004984637926,149.31160416101594" fill="transparent" stroke="rgba(188, 195, 195, 0.6)" stroke-width="6" opacity="0.8"></path><path d="M14.214,0 L0,11.5 L0,-11.5" transform="translate(405.3269704696961, 149.52357222962812) rotate(-19.257522580115864)" fill="rgba(188, 195, 195, 0.6)"></path><path d="M276.3311347066942,317.4459189564398A 184.46793196372514,184.46793196372514 0 0,1 196.84290522606943,444.0394048528535" fill="transparent" stroke="rgba(188, 195, 195, 0.6)" stroke-width="6" opacity="0.8"></path><path d="M14.214,0 L0,11.5 L0,-11.5" transform="translate(197.22699982124345, 443.71896457750177) rotate(145.96670714406378)" fill="rgba(188, 195, 195, 0.6)"></path><path d="M310.27290162004795,261.8966912003608A 183.42269462686838,183.42269462686838 0 0,1 453.90271266278523,224.0540579325043" fill="transparent" stroke="rgba(188, 195, 195, 0.6)" stroke-width="6" opacity="0.8"></path><path d="M14.214,0 L0,11.5 L0,-11.5" transform="translate(453.40329773179485, 224.02582478950353) rotate(9.063859692715402)" fill="rgba(188, 195, 195, 0.6)"></path><path d="M279.9069895008513,248.0459648320198A 183.08007623173745,183.08007623173745 0 0,1 326.39573981427895,107.30460396492205" fill="transparent" stroke="rgba(188, 195, 195, 0.6)" stroke-width="6" opacity="0.8"></path><path d="M14.214,0 L0,11.5 L0,-11.5" transform="translate(326.0998787483135, 107.70793905310893) rotate(-47.90239672043529)" fill="rgba(188, 195, 195, 0.6)"></path><path d="M247.33550359911087,282.00466824551864A 171.56817123305692,171.56817123305692 0 0,1 119.4280585836245,228.29774962275724" fill="transparent" stroke="rgba(188, 195, 195, 0.6)" stroke-width="14.470588235294116" opacity="0.8"></path><path d="M22.357058823529407,0 L0,18.088235294117645 L0,-18.088235294117645" transform="translate(119.81317944071063, 228.61747554058468) rotate(-133.4369554409443)" fill="rgba(188, 195, 195, 0.6)"></path><path d="M251.9186425162481,265.62435744857015A 182.210522720768,182.210522720768 0 0,1 160.9693541672229,149.58839743501122" fill="transparent" stroke="rgba(188, 195, 195, 0.6)" stroke-width="6" opacity="0.8"></path><path d="M14.214,0 L0,11.5 L0,-11.5" transform="translate(161.14160355851382, 150.0580191906863) rotate(-104.28571110837836)" fill="rgba(188, 195, 195, 0.6)"></path><path d="M261.08163771261036,310.7803246581953A 181.8610439436837,181.8610439436837 0 0,1 134.22956693330488,385.2874275399636" fill="transparent" stroke="rgba(188, 195, 195, 0.6)" stroke-width="6" opacity="0.8"></path><path d="M14.214,0 L0,11.5 L0,-11.5" transform="translate(134.71793439544012, 385.17920430699) rotate(173.36972928482268)" fill="rgba(188, 195, 195, 0.6)"></path><path d="M292.9120992176189,316.32204854380336A 182.08819661492623,182.08819661492623 0 0,1 281.0931984793132,463.1679811013916" fill="transparent" stroke="rgba(188, 195, 195, 0.6)" stroke-width="6" opacity="0.8"></path><path d="M14.214,0 L0,11.5 L0,-11.5" transform="translate(281.2849757950895, 462.70598963274233) rotate(118.4031751182302)" fill="rgba(188, 195, 195, 0.6)"></path><path d="M316.8688213874766,277.3460820222373A 182.37443392664954,182.37443392664954 0 0,1 460.6750475778419,310.50852057028965" fill="transparent" stroke="rgba(188, 195, 195, 0.6)" stroke-width="6" opacity="0.8"></path><path d="M14.214,0 L0,11.5 L0,-11.5" transform="translate(460.24600888383725, 310.25134365712967) rotate(36.79221009263451)" fill="rgba(188, 195, 195, 0.6)"></path><path d="M315.6380639921016,293.6894091426867A 187.0897282031744,187.0897282031744 0 0,1 431.6707524422105,391.65973162835996" fill="transparent" stroke="rgba(188, 195, 195, 0.6)" stroke-width="6" opacity="0.8"></path><path d="M14.214,0 L0,11.5 L0,-11.5" transform="translate(431.4080323299012, 391.2340739507423) rotate(64.06103974935417)" fill="rgba(188, 195, 195, 0.6)"></path><path d="M307.10489362151935,307.67744915704714A 182.85535192320077,182.85535192320077 0 0,1 364.5759337693573,444.08132048598577" fill="transparent" stroke="rgba(188, 195, 195, 0.6)" stroke-width="6" opacity="0.8"></path><path d="M14.214,0 L0,11.5 L0,-11.5" transform="translate(364.5334344511777, 443.58291587788426) rotate(90.96755960545262)" fill="rgba(188, 195, 195, 0.6)"></path><circle r="35" cx="282.3223942891403" cy="282.9625199271134" style="fill: rgb(188, 195, 195); opacity: 1;"></circle><text x="282.3223942891403" y="282.9625199271134" dx="0" dy="0" font-family="&quot;proxima nova&quot;, proxima-nova, &quot;Helvetica Neue&quot;, helvetica, sans-serif" font-size="9.731162594595945px" font-weight="normal" font-style="normal" text-anchor="middle" alignment-baseline="middle" style="fill: rgb(68, 68, 68); opacity: 1;"> MLK </text><circle r="35" cx="60.569051769418024" cy="288.02022808118164" style="fill: rgb(188, 195, 195); opacity: 1;"></circle><text x="60.569051769418024" y="288.02022808118164" dx="0" dy="0" font-family="&quot;proxima nova&quot;, proxima-nova, &quot;Helvetica Neue&quot;, helvetica, sans-serif" font-size="9.731162594595945px" font-weight="normal" font-style="normal" text-anchor="middle" alignment-baseline="middle" style="fill: rgb(68, 68, 68); opacity: 1;">AFRICANS</text><circle r="35" cx="249.2722873984112" cy="60.759441831404956" style="fill: rgb(188, 195, 195); opacity: 1;"></circle><text x="249.2722873984112" y="60.759441831404956" dx="0" dy="0" font-family="&quot;proxima nova&quot;, proxima-nova, &quot;Helvetica Neue&quot;, helvetica, sans-serif" font-size="9.731162594595945px" font-weight="normal" font-style="normal" text-anchor="middle" alignment-baseline="middle" style="fill: rgb(68, 68, 68); opacity: 1;">AMERICANS</text><circle r="35" cx="451.73709984543257" cy="133.3095927321881" style="fill: rgb(188, 195, 195); opacity: 1;"></circle><text x="451.73709984543257" y="133.3095927321881" dx="0" dy="0" font-family="&quot;proxima nova&quot;, proxima-nova, &quot;Helvetica Neue&quot;, helvetica, sans-serif" font-size="9.731162594595945px" font-weight="normal" font-style="normal" text-anchor="middle" alignment-baseline="middle" style="fill: rgb(68, 68, 68); opacity: 1;">AFRICAN-AMERICANS</text><circle r="35" cx="501.9500871577787" cy="231.7703564234441" style="fill: rgb(188, 195, 195); opacity: 1;"></circle><text x="501.9500871577787" y="231.7703564234441" dx="0" dy="0" font-family="&quot;proxima nova&quot;, proxima-nova, &quot;Helvetica Neue&quot;, helvetica, sans-serif" font-size="9.731162594595945px" font-weight="normal" font-style="normal" text-anchor="middle" alignment-baseline="middle" style="fill: rgb(68, 68, 68); opacity: 1;">POC</text><circle r="35" cx="359.05685690696737" cy="71.23066128731048" style="fill: rgb(188, 195, 195); opacity: 1;"></circle><text x="359.05685690696737" y="71.23066128731048" dx="0" dy="0" font-family="&quot;proxima nova&quot;, proxima-nova, &quot;Helvetica Neue&quot;, helvetica, sans-serif" font-size="9.731162594595945px" font-weight="normal" font-style="normal" text-anchor="middle" alignment-baseline="middle" style="fill: rgb(68, 68, 68); opacity: 1;">HUMAN KIND</text><circle r="35" cx="80.44545972179353" cy="187.04102884175043" style="fill: rgb(188, 195, 195); opacity: 1;"></circle><text x="80.44545972179353" y="187.04102884175043" dx="0" dy="0" font-family="&quot;proxima nova&quot;, proxima-nova, &quot;Helvetica Neue&quot;, helvetica, sans-serif" font-size="9.731162594595945px" font-weight="normal" font-style="normal" text-anchor="middle" alignment-baseline="middle" style="fill: rgb(68, 68, 68); opacity: 1;">WHITES</text><circle r="35" cx="149.0109824746916" cy="102.41806109260597" style="fill: rgb(188, 195, 195); opacity: 1;"></circle><text x="149.0109824746916" y="102.41806109260597" dx="0" dy="0" font-family="&quot;proxima nova&quot;, proxima-nova, &quot;Helvetica Neue&quot;, helvetica, sans-serif" font-size="9.731162594595945px" font-weight="normal" font-style="normal" text-anchor="middle" alignment-baseline="middle" style="fill: rgb(68, 68, 68); opacity: 1;">ACTIVISTS</text><circle r="35" cx="85.88675002931947" cy="390.8553107550906" style="fill: rgb(188, 195, 195); opacity: 1;"></circle><text x="85.88675002931947" y="390.8553107550906" dx="0" dy="0" font-family="&quot;proxima nova&quot;, proxima-nova, &quot;Helvetica Neue&quot;, helvetica, sans-serif" font-size="9.731162594595945px" font-weight="normal" font-style="normal" text-anchor="middle" alignment-baseline="middle" style="fill: rgb(68, 68, 68); opacity: 1;">BLACKS</text><circle r="35" cx="257.90086045217527" cy="505.94827845950414" style="fill: rgb(188, 195, 195); opacity: 1;"></circle><text x="257.90086045217527" y="505.94827845950414" dx="0" dy="0" font-family="&quot;proxima nova&quot;, proxima-nova, &quot;Helvetica Neue&quot;, helvetica, sans-serif" font-size="9.731162594595945px" font-weight="normal" font-style="normal" text-anchor="middle" alignment-baseline="middle" style="fill: rgb(68, 68, 68); opacity: 1;">EUROPEANS</text><circle r="35" cx="499.6141204551978" cy="339.6941067595541" style="fill: rgb(188, 195, 195); opacity: 1;"></circle><text x="499.6141204551978" y="339.6941067595541" dx="0" dy="0" font-family="&quot;proxima nova&quot;, proxima-nova, &quot;Helvetica Neue&quot;, helvetica, sans-serif" font-size="9.731162594595945px" font-weight="normal" font-style="normal" text-anchor="middle" alignment-baseline="middle" style="fill: rgb(68, 68, 68); opacity: 1;">JEWISH</text><circle r="35" cx="452.9122206540284" cy="435.443669438748" style="fill: rgb(188, 195, 195); opacity: 1;"></circle><text x="452.9122206540284" y="435.443669438748" dx="0" dy="0" font-family="&quot;proxima nova&quot;, proxima-nova, &quot;Helvetica Neue&quot;, helvetica, sans-serif" font-size="9.731162594595945px" font-weight="normal" font-style="normal" text-anchor="middle" alignment-baseline="middle" style="fill: rgb(68, 68, 68); opacity: 1;">PROTESTANTS</text><circle r="35" cx="363.7032973035683" cy="492.7363048173471" style="fill: rgb(188, 195, 195); opacity: 1;"></circle><text x="363.7032973035683" y="492.7363048173471" dx="0" dy="0" font-family="&quot;proxima nova&quot;, proxima-nova, &quot;Helvetica Neue&quot;, helvetica, sans-serif" font-size="9.731162594595945px" font-weight="normal" font-style="normal" text-anchor="middle" alignment-baseline="middle" style="fill: rgb(68, 68, 68); opacity: 1;">CATHOLICS</text></g><g fill-opacity="1" stroke-opacity="1"><circle r="35" cx="156.48659717362992" cy="471.2331699956737" style="fill: rgb(188, 195, 195); opacity: 1;"></circle><circle r="35" cx="156.48659717362992" cy="471.2331699956737" style="fill: transparent; stroke: rgb(183, 42, 42); stroke-width: 1.12883; opacity: 1;"></circle><text x="156.48659717362992" y="471.2331699956737" dx="0" dy="0" font-family="&quot;proxima nova&quot;, proxima-nova, &quot;Helvetica Neue&quot;, helvetica, sans-serif" font-size="9.731162594595945px" font-weight="normal" font-style="normal" text-anchor="middle" alignment-baseline="middle" style="fill: rgb(68, 68, 68); opacity: 1;">FOUNDING FATHERS</text></g></svg>